<svg width="318" height="249" viewBox="0 0 318 249" fill="none" xmlns="http://www.w3.org/2000/svg">
<path d="M310.454 141.723L309.954 143.423C308.654 149.223 307.354 155.023 306.554 160.823C306.154 163.323 306.054 165.823 305.754 168.323C305.554 168.823 305.854 169.323 306.254 169.423C306.754 169.523 307.154 169.323 307.354 168.823C308.454 166.523 309.654 164.323 310.554 161.823C312.554 156.223 313.554 150.423 315.154 144.723C315.254 144.423 316.554 139.823 316.954 137.923C317.454 135.323 315.354 134.123 315.054 134.023C314.854 134.023 313.254 134.023 311.254 135.223C306.954 137.723 296.554 144.223 295.254 145.023L289.954 148.123C287.354 149.423 287.554 151.623 288.854 151.923C289.254 152.023 290.454 152.023 291.654 151.323L297.254 148.723C298.354 148.223 305.354 144.423 310.454 141.723Z" fill="white"/>
<path fill-rule="evenodd" clip-rule="evenodd" d="M155.557 135.557C156.621 127.734 158.552 119.053 161.287 110.554C164.191 101.71 168.156 92.7461 173.124 84.9177C178.61 76.4884 185.217 70.537 190.851 68.6012C196.834 66.4092 201.754 68.1885 203.696 75.5652C205.638 82.9419 203.622 91.7947 199.561 100.498C194.069 112.562 184.674 124.632 177.393 132.178C172.192 137.538 166.802 142.376 161.571 146.436C160.274 186.891 179.935 204.914 207.943 203.717C222.565 202.994 239.456 196.754 256.962 186.322C273.94 176.057 291.367 162.162 308.058 143.195C308.487 142.55 309.02 142.598 309.294 142.947C309.484 143.469 309.239 144.418 308.721 145.019C292.079 166.15 274.187 183.028 256.621 194.715C238.093 206.998 220.224 213.186 204.63 214.072C174.065 215.937 152.843 195.647 154.147 151.557C148.203 155.481 142.325 158.366 136.526 160.863C123.249 166.1 110.506 167.533 99.2901 165.866C84.5095 163.514 70.3432 156.97 59.4337 145.394C48.4345 133.773 40.692 117.121 38.5145 95.5029C37.8136 88.0951 37.5466 80.2587 38.0674 71.9539C38.5881 63.6492 39.8069 54.8319 41.7337 45.9349C42.5373 42.264 43.5155 38.4649 44.5834 34.7099C45.3219 32.077 46.0654 29.6606 46.9834 27.116C47.5671 25.4771 48.1459 23.6217 48.989 21.6823C49.5776 20.2598 50.2609 19.0979 51.1236 18.0244L52.0061 17.8166C51.9262 18.2053 51.7566 18.5499 51.5772 18.4616L51.5821 18.678L49.4611 26.8373L45.6076 44.6312C44.1098 52.8831 43.4095 61.0996 43.0534 68.8433C42.7023 76.8035 42.7849 84.335 43.476 91.31C45.3696 112.146 52.8281 128.017 63.284 139.156C73.8346 150.555 87.4675 157.051 101.804 159.398C112.577 161.062 124.791 159.796 137.54 154.727C143.164 152.359 148.778 149.557 154.457 145.717C154.737 142.431 155.104 139.044 155.557 135.557ZM161.877 140.38C166.7 136.618 171.481 132.265 176.218 127.32C182.631 120.631 191.079 109.806 195.808 99.2923C198.676 92.785 200.213 86.2647 198.674 81.0127C197.145 76.1936 193.571 75.0767 189.438 76.6809C185.305 78.2851 180.617 82.8269 176.852 88.8927C172.657 95.6034 169.719 102.932 167.489 110.182C165.089 117.776 163.576 125.378 162.756 132.252C162.347 135.046 162.054 137.756 161.877 140.38Z" fill="white"/>
</svg>
