<svg width="502" height="500" viewBox="0 0 502 500" fill="none" xmlns="http://www.w3.org/2000/svg">
<path d="M293.977 31.3833C293.806 31.5908 293.598 31.6734 293.351 31.6312C293.17 31.6002 292.957 31.4623 292.712 31.2173C292.469 30.9559 292.131 30.6612 291.697 30.3331C291.282 29.9915 290.746 29.663 290.09 29.3477C289.437 29.0159 288.617 28.7656 287.631 28.5967C286.744 28.4447 285.909 28.4368 285.124 28.573C284.359 28.6956 283.677 28.9254 283.079 29.2624C282.496 29.6023 282.016 30.0358 281.638 30.5629C281.263 31.0736 281.022 31.641 280.915 32.2653C280.783 33.0373 280.871 33.7118 281.178 34.2886C281.485 34.8654 281.919 35.3879 282.482 35.8563C283.06 36.3275 283.738 36.7648 284.514 37.1684C285.29 37.572 286.075 37.9769 286.868 38.3833C287.677 38.7925 288.464 39.2317 289.229 39.701C289.997 40.1538 290.652 40.6719 291.195 41.2553C291.754 41.8414 292.172 42.5133 292.448 43.2708C292.724 44.0283 292.777 44.8998 292.608 45.8855C292.425 46.9532 292.066 47.9147 291.531 48.7699C290.995 49.6251 290.3 50.3261 289.446 50.873C288.607 51.4227 287.621 51.8032 286.485 52.0145C285.35 52.2258 284.092 52.2133 282.713 51.9768C280.988 51.6813 279.547 51.1555 278.392 50.3995C277.239 49.6271 276.246 48.7129 275.412 47.657L276.098 46.9121C276.202 46.7947 276.31 46.7116 276.42 46.6628C276.546 46.6168 276.699 46.6093 276.88 46.6402C277.094 46.6768 277.326 46.8519 277.576 47.1654C277.843 47.4817 278.205 47.8395 278.661 48.2389C279.119 48.6218 279.696 49.008 280.39 49.3975C281.1 49.7898 282.006 50.0803 283.107 50.2689C284.142 50.4462 285.077 50.4627 285.914 50.3186C286.753 50.158 287.477 49.8763 288.087 49.4736C288.698 49.0708 289.19 48.5634 289.566 47.9513C289.96 47.3257 290.221 46.6432 290.348 45.904C290.488 45.0826 290.408 44.3671 290.107 43.7575C289.805 43.1478 289.367 42.5992 288.791 42.1116C288.215 41.624 287.539 41.1784 286.762 40.7749C286.002 40.3741 285.218 39.9691 284.409 39.5599C283.6 39.1508 282.811 38.7197 282.043 38.2669C281.292 37.8169 280.636 37.2988 280.077 36.7126C279.518 36.1264 279.099 35.4628 278.821 34.7218C278.544 33.9643 278.494 33.0763 278.668 32.0578C278.817 31.1871 279.15 30.3817 279.666 29.6415C280.181 28.9013 280.836 28.2864 281.63 27.7968C282.441 27.31 283.378 26.9718 284.442 26.7821C285.506 26.5923 286.662 26.6044 287.911 26.8183C289.406 27.0745 290.691 27.5146 291.768 28.1387C292.861 28.7656 293.808 29.6043 294.609 30.6546L293.977 31.3833Z" fill="white"/>
<path d="M332.071 42.7417C331.965 42.7925 331.861 42.8355 331.761 42.8706C331.681 42.8956 331.579 42.8859 331.453 42.8415C331.296 42.786 331.12 42.6089 330.925 42.3103C330.735 41.996 330.457 41.6326 330.09 41.2203C329.723 40.8079 329.23 40.3775 328.61 39.9291C328.012 39.4705 327.226 39.0692 326.251 38.7252C324.9 38.2481 323.612 38.0672 322.387 38.1827C321.183 38.288 320.061 38.6609 319.022 39.3015C317.983 39.9421 317.05 40.8324 316.224 41.9722C315.413 43.1176 314.727 44.4839 314.167 46.0713C313.584 47.7215 313.257 49.2496 313.185 50.6558C313.128 52.0675 313.298 53.3382 313.695 54.468C314.097 55.5821 314.72 56.5445 315.565 57.3554C316.41 58.1662 317.445 58.788 318.671 59.2208C319.803 59.6203 320.793 59.8196 321.642 59.8187C322.506 59.8234 323.237 59.7546 323.836 59.6122C324.449 59.4755 324.945 59.3234 325.322 59.1561C325.699 58.9888 325.982 58.9385 326.171 59.005C326.359 59.0716 326.489 59.2057 326.559 59.4072L326.882 60.3696C326.354 60.7135 325.743 60.9927 325.049 61.2071C324.354 61.4215 323.609 61.556 322.812 61.6105C322.015 61.665 321.18 61.6265 320.307 61.4952C319.445 61.3851 318.574 61.1747 317.694 60.864C316.2 60.3369 314.928 59.5871 313.875 58.6144C312.843 57.6316 312.059 56.4713 311.524 55.1335C311.01 53.7855 310.766 52.2763 310.79 50.6057C310.83 48.9407 311.185 47.1573 311.857 45.2557C312.489 43.4641 313.302 41.9128 314.295 40.6019C315.288 39.2911 316.429 38.2622 317.718 37.5153C319.006 36.7684 320.406 36.3345 321.915 36.2135C323.446 36.0823 325.06 36.3163 326.758 36.9155C328.282 37.4537 329.548 38.1744 330.555 39.0778C331.561 39.9811 332.358 41.0046 332.944 42.1482L332.071 42.7417Z" fill="white"/>
<path d="M354.862 56.3639C355.692 55.6629 356.509 55.0882 357.313 54.6398C358.139 54.1849 358.963 53.8716 359.784 53.7C360.62 53.5365 361.449 53.522 362.271 53.6563C363.116 53.7842 363.96 54.0837 364.804 54.5548C365.255 54.8066 365.675 55.098 366.063 55.429C366.459 55.7455 366.767 56.099 366.988 56.4895L366.009 57.8329C365.807 58.0251 365.603 58.0644 365.4 57.9507C365.225 57.8532 364.984 57.652 364.677 57.347C364.385 57.0502 363.948 56.7394 363.365 56.4145C362.521 55.9434 361.699 55.656 360.898 55.5525C360.119 55.4425 359.326 55.496 358.518 55.713C357.724 55.938 356.92 56.3193 356.104 56.8568C355.312 57.3878 354.483 58.0515 353.619 58.8479L345.772 72.9065L343.677 71.7369L355.799 50.0159L356.913 50.6373C357.16 50.7754 357.306 50.9238 357.351 51.0825C357.396 51.2412 357.365 51.4524 357.256 51.7161L354.862 56.3639Z" fill="white"/>
<path d="M391.777 73.1148C393.165 74.2344 394.21 75.4737 394.913 76.8326C395.639 78.189 396.028 79.6053 396.079 81.0813C396.13 82.5574 395.854 84.0686 395.249 85.6149C394.667 87.1587 393.765 88.6895 392.54 90.2073C391.316 91.7251 390.011 92.9316 388.625 93.8266C387.253 94.7322 385.84 95.3161 384.386 95.5784C382.933 95.8407 381.466 95.7606 379.987 95.3382C378.52 94.9263 377.093 94.1606 375.705 93.041C374.317 91.9214 373.26 90.6834 372.534 89.3269C371.821 87.981 371.432 86.5647 371.368 85.0782C371.317 83.6022 371.582 82.0922 372.163 80.5484C372.757 79.0151 373.667 77.4895 374.891 75.9717C376.115 74.4539 377.414 73.2422 378.786 72.3367C380.183 71.4286 381.607 70.8435 383.061 70.5812C384.527 70.3293 385.994 70.4094 387.46 70.8213C388.95 71.2307 390.389 71.9952 391.777 73.1148ZM376.882 91.5815C378.037 92.5128 379.199 93.1291 380.369 93.4305C381.563 93.7294 382.743 93.7394 383.91 93.4603C385.091 93.1917 386.242 92.6536 387.364 91.846C388.497 91.0254 389.587 89.9665 390.633 88.6692C391.669 87.3849 392.468 86.1022 393.03 84.8212C393.593 83.5403 393.88 82.2946 393.893 81.0843C393.929 79.8715 393.674 78.7135 393.13 77.6103C392.598 76.5175 391.754 75.5055 390.6 74.5743C389.445 73.643 388.271 73.0279 387.078 72.729C385.897 72.4406 384.712 72.4371 383.521 72.7187C382.354 72.9978 381.197 73.5423 380.051 74.3525C378.918 75.1731 377.834 76.2255 376.798 77.5098C375.752 78.8071 374.947 80.0962 374.385 81.3772C373.846 82.6557 373.564 83.8949 373.539 85.0947C373.526 86.305 373.786 87.4565 374.317 88.5493C374.873 89.6395 375.728 90.6503 376.882 91.5815Z" fill="white"/>
<path d="M428.957 93.2686L401.667 117.319L400.08 115.518L427.37 91.468L428.957 93.2686Z" fill="white"/>
<path d="M452.895 125.644L421.936 144.74L420.676 142.697L451.635 123.601L452.895 125.644Z" fill="white"/>
<path d="M467.546 209.178C468.745 207.946 469.507 206.698 469.83 205.435C470.157 204.187 470.163 202.839 469.849 201.389C469.538 199.956 469.006 198.758 468.252 197.796C467.498 196.833 466.561 196.09 465.441 195.565C464.341 195.053 463.083 194.754 461.666 194.669C460.269 194.596 458.772 194.733 457.176 195.079C453.56 195.862 451.039 197.099 449.615 198.789C448.21 200.491 447.779 202.597 448.323 205.105C448.669 206.702 449.4 208.07 450.516 209.209C451.633 210.348 453.05 211.261 454.767 211.946L467.546 209.178ZM484.517 207.932L448.966 215.633L448.691 214.362C448.599 213.939 448.758 213.649 449.167 213.492L452.95 212.416C451.252 211.659 449.815 210.657 448.641 209.41C447.468 208.164 446.687 206.645 446.299 204.853C445.649 201.856 446.179 199.303 447.888 197.193C449.597 195.084 452.52 193.581 456.657 192.684C458.433 192.3 460.135 192.17 461.765 192.294C463.415 192.431 464.899 192.826 466.217 193.479C467.551 194.127 468.685 195.033 469.619 196.195C470.556 197.373 471.21 198.817 471.581 200.528C471.937 202.173 471.945 203.664 471.603 204.999C471.261 206.335 470.593 207.58 469.598 208.734L484.014 205.611L484.517 207.932Z" fill="white"/>
<path d="M476.789 239.037C476.867 240.818 476.629 242.422 476.074 243.847C475.536 245.289 474.73 246.517 473.657 247.531C472.583 248.546 471.267 249.337 469.707 249.906C468.164 250.49 466.419 250.825 464.471 250.91C462.522 250.995 460.754 250.814 459.167 250.366C457.58 249.935 456.207 249.261 455.05 248.344C453.892 247.427 452.982 246.273 452.321 244.884C451.661 243.512 451.292 241.935 451.214 240.153C451.136 238.371 451.366 236.76 451.903 235.318C452.442 233.894 453.247 232.666 454.32 231.635C455.394 230.62 456.702 229.821 458.244 229.236C459.788 228.668 461.533 228.342 463.481 228.257C465.43 228.172 467.197 228.345 468.784 228.776C470.389 229.223 471.77 229.905 472.927 230.822C474.086 231.756 474.995 232.909 475.656 234.281C476.334 235.67 476.712 237.255 476.789 239.037ZM453.087 240.071C453.152 241.553 453.458 242.833 454.005 243.91C454.57 245.003 455.343 245.895 456.324 246.586C457.306 247.294 458.471 247.802 459.819 248.11C461.184 248.418 462.699 248.535 464.364 248.462C466.012 248.39 467.503 248.142 468.835 247.717C470.168 247.292 471.293 246.684 472.209 245.893C473.143 245.118 473.843 244.162 474.311 243.023C474.779 241.902 474.981 240.6 474.916 239.118C474.851 237.636 474.537 236.349 473.972 235.256C473.408 234.179 472.626 233.288 471.628 232.58C470.647 231.889 469.474 231.382 468.108 231.058C466.743 230.75 465.237 230.632 463.588 230.704C461.923 230.777 460.424 231.026 459.092 231.451C457.776 231.892 456.66 232.5 455.743 233.274C454.827 234.065 454.134 235.021 453.666 236.142C453.215 237.28 453.022 238.589 453.087 240.071Z" fill="white"/>
<path d="M472.886 294.25L449.251 282.888L449.474 281.127C449.51 280.846 449.708 280.678 450.068 280.623L470.962 276.416C471.221 276.365 471.478 276.322 471.735 276.288C471.991 276.253 472.246 276.226 472.501 276.208C472.015 276.063 471.535 275.876 471.06 275.648L451.887 266.263C451.553 266.12 451.404 265.899 451.442 265.602L451.656 263.915L477.377 258.808L477.15 260.594C477.121 260.825 477.031 261.007 476.88 261.139C476.745 261.273 476.6 261.356 476.445 261.387L456.187 265.145C455.794 265.196 455.411 265.239 455.036 265.276C454.679 265.315 454.323 265.337 453.97 265.342C454.304 265.486 454.639 265.629 454.974 265.772C455.325 265.917 455.682 266.08 456.046 266.261L474.853 275.347C475.202 275.509 475.354 275.763 475.31 276.111L475.188 277.078C475.141 277.442 474.929 277.658 474.551 277.728L454.078 281.786C453.683 281.854 453.306 281.915 452.946 281.971C452.586 282.026 452.227 282.073 451.87 282.111C452.209 282.222 452.547 282.332 452.886 282.442C453.223 282.569 453.574 282.714 453.94 282.878L472.614 291.62C472.788 291.709 472.914 291.834 472.995 291.996C473.092 292.159 473.128 292.34 473.102 292.538L472.886 294.25Z" fill="white"/>
<path d="M465.266 306.34C466.302 307.858 467.016 309.46 467.408 311.148C467.795 312.851 467.719 314.588 467.179 316.357C466.781 317.665 466.224 318.75 465.509 319.612C464.788 320.49 463.938 321.137 462.957 321.552C461.977 321.968 460.886 322.176 459.683 322.175C458.481 322.175 457.187 321.963 455.8 321.541L440.59 316.907L441.29 314.611L456.499 319.245C458.731 319.925 460.632 319.947 462.203 319.31C463.789 318.678 464.901 317.318 465.537 315.23C466.008 313.683 466.051 312.111 465.667 310.513C465.294 308.936 464.566 307.407 463.484 305.928L445.596 300.478L446.295 298.182L470.09 305.431L469.704 306.699C469.583 307.097 469.313 307.268 468.895 307.21L465.266 306.34Z" fill="white"/>
<path d="M426.658 387.16C426.549 386.914 426.569 386.691 426.717 386.49C426.826 386.342 427.045 386.213 427.374 386.104C427.717 386.005 428.132 385.834 428.62 385.594C429.112 385.376 429.645 385.045 430.222 384.6C430.811 384.165 431.403 383.545 431.996 382.74C432.53 382.016 432.912 381.272 433.143 380.51C433.376 379.772 433.477 379.059 433.445 378.373C433.402 377.7 433.23 377.076 432.929 376.502C432.641 375.938 432.242 375.468 431.732 375.092C431.101 374.627 430.459 374.403 429.806 374.418C429.153 374.434 428.491 374.588 427.82 374.88C427.139 375.186 426.444 375.595 425.735 376.107C425.026 376.62 424.312 377.139 423.593 377.666C422.864 378.205 422.119 378.711 421.356 379.184C420.607 379.667 419.85 380.02 419.085 380.243C418.31 380.48 417.522 380.552 416.722 380.458C415.921 380.365 415.118 380.022 414.313 379.428C413.441 378.786 412.743 378.033 412.219 377.171C411.695 376.309 411.38 375.373 411.275 374.364C411.16 373.368 411.263 372.316 411.584 371.206C411.904 370.097 412.48 368.979 413.311 367.851C414.349 366.443 415.465 365.392 416.659 364.698C417.867 364.015 419.13 363.537 420.447 363.266L420.805 364.213C420.863 364.36 420.889 364.493 420.884 364.613C420.868 364.746 420.806 364.887 420.697 365.034C420.569 365.209 420.308 365.338 419.915 365.421C419.513 365.518 419.031 365.68 418.469 365.908C417.921 366.146 417.318 366.488 416.658 366.933C415.988 367.392 415.322 368.071 414.66 368.97C414.037 369.815 413.602 370.644 413.356 371.456C413.123 372.278 413.049 373.052 413.135 373.778C413.221 374.504 413.454 375.172 413.832 375.782C414.214 376.416 414.707 376.955 415.311 377.4C415.982 377.894 416.657 378.144 417.337 378.148C418.017 378.152 418.704 378.007 419.399 377.711C420.093 377.415 420.794 377.011 421.503 376.498C422.203 375.999 422.917 375.479 423.645 374.94C424.374 374.401 425.113 373.889 425.863 373.406C426.602 372.937 427.359 372.584 428.134 372.347C428.909 372.111 429.69 372.034 430.477 372.118C431.278 372.211 432.094 372.564 432.926 373.177C433.637 373.701 434.208 374.36 434.638 375.153C435.068 375.946 435.323 376.807 435.404 377.736C435.476 378.679 435.357 379.668 435.049 380.704C434.741 381.74 434.212 382.768 433.46 383.788C432.56 385.009 431.59 385.96 430.549 386.642C429.498 387.338 428.324 387.808 427.026 388.052L426.658 387.16Z" fill="white"/>
<path d="M399.412 416.106C399.414 415.988 399.422 415.876 399.436 415.771C399.449 415.688 399.504 415.601 399.6 415.509C399.72 415.393 399.957 415.315 400.312 415.275C400.678 415.247 401.127 415.161 401.661 415.018C402.194 414.875 402.8 414.628 403.478 414.275C404.157 413.947 404.868 413.424 405.613 412.708C406.646 411.714 407.386 410.644 407.832 409.498C408.278 408.375 408.448 407.205 408.342 405.989C408.236 404.773 407.859 403.54 407.212 402.289C406.552 401.051 405.639 399.825 404.472 398.612C403.259 397.35 402.04 396.372 400.816 395.676C399.579 394.992 398.368 394.574 397.18 394.421C396.004 394.281 394.864 394.406 393.76 394.797C392.656 395.188 391.636 395.834 390.699 396.736C389.834 397.567 389.212 398.363 388.832 399.122C388.44 399.892 388.173 400.576 388.032 401.175C387.878 401.785 387.792 402.296 387.772 402.708C387.752 403.12 387.67 403.396 387.526 403.534C387.382 403.673 387.204 403.728 386.993 403.701L385.988 403.557C385.917 402.931 385.942 402.26 386.062 401.543C386.182 400.827 386.396 400.1 386.705 399.363C387.014 398.627 387.423 397.898 387.932 397.177C388.418 396.456 388.997 395.771 389.67 395.124C390.811 394.027 392.052 393.226 393.394 392.721C394.735 392.24 396.124 392.061 397.559 392.183C398.995 392.329 400.453 392.787 401.935 393.559C403.405 394.342 404.839 395.46 406.237 396.913C407.555 398.282 408.576 399.705 409.302 401.181C410.028 402.656 410.435 404.138 410.524 405.625C410.613 407.112 410.373 408.557 409.803 409.96C409.234 411.387 408.3 412.725 407.003 413.972C405.838 415.093 404.626 415.901 403.367 416.395C402.108 416.889 400.835 417.142 399.55 417.152L399.412 416.106Z" fill="white"/>
<path d="M377.01 430.358C377.264 431.415 377.411 432.403 377.451 433.322C377.486 434.265 377.396 435.142 377.181 435.952C376.952 436.773 376.593 437.52 376.104 438.194C375.611 438.892 374.964 439.512 374.164 440.055C373.737 440.345 373.288 440.589 372.818 440.787C372.358 440.999 371.904 441.116 371.455 441.138L370.694 439.661C370.613 439.393 370.669 439.194 370.863 439.063C371.028 438.951 371.316 438.826 371.726 438.688C372.123 438.56 372.597 438.309 373.148 437.934C373.948 437.392 374.574 436.785 375.026 436.116C375.474 435.47 375.782 434.737 375.951 433.917C376.106 433.107 376.126 432.217 376.012 431.247C375.893 430.3 375.672 429.262 375.348 428.132L366.306 414.811L368.292 413.463L382.262 434.045L381.207 434.761C380.972 434.92 380.774 434.984 380.612 434.953C380.45 434.922 380.276 434.799 380.089 434.583L377.01 430.358Z" fill="white"/>
<path d="M345.473 455.83C343.849 456.568 342.273 456.945 340.743 456.963C339.205 457.003 337.765 456.715 336.423 456.099C335.081 455.482 333.855 454.557 332.744 453.322C331.626 452.11 330.663 450.616 329.856 448.841C329.049 447.065 328.556 445.358 328.378 443.718C328.185 442.085 328.298 440.56 328.716 439.143C329.134 437.726 329.863 436.452 330.905 435.32C331.931 434.194 333.256 433.262 334.879 432.524C336.503 431.786 338.083 431.397 339.621 431.357C341.144 431.324 342.584 431.612 343.942 432.222C345.284 432.839 346.514 433.753 347.633 434.966C348.736 436.185 349.691 437.682 350.498 439.457C351.305 441.233 351.805 442.937 351.998 444.57C352.183 446.225 352.067 447.761 351.649 449.178C351.216 450.601 350.486 451.876 349.46 453.001C348.425 454.149 347.096 455.092 345.473 455.83ZM335.655 434.231C334.305 434.845 333.232 435.607 332.438 436.517C331.635 437.45 331.096 438.5 330.822 439.669C330.532 440.844 330.496 442.114 330.714 443.48C330.939 444.86 331.397 446.309 332.086 447.827C332.769 449.329 333.557 450.618 334.449 451.696C335.341 452.773 336.326 453.589 337.402 454.143C338.469 454.72 339.618 455.012 340.849 455.021C342.064 455.036 343.347 454.736 344.697 454.123C346.047 453.509 347.124 452.736 347.927 451.803C348.714 450.878 349.249 449.82 349.532 448.629C349.807 447.461 349.839 446.183 349.629 444.795C349.404 443.415 348.951 441.973 348.268 440.471C347.578 438.954 346.787 437.657 345.895 436.579C344.994 435.524 344.013 434.716 342.953 434.155C341.877 433.6 340.731 433.315 339.516 433.3C338.292 433.307 337.006 433.617 335.655 434.231Z" fill="white"/>
<path d="M310.776 480.01L301.532 444.829L303.853 444.219L313.097 479.4L310.776 480.01Z" fill="white"/>
<path d="M271.102 486.871L267.932 450.635L270.322 450.426L273.493 486.662L271.102 486.871Z" fill="white"/>
<path d="M189.877 462.474C190.44 464.099 191.213 465.34 192.197 466.196C193.165 467.047 194.368 467.658 195.804 468.028C197.224 468.394 198.534 468.456 199.732 468.214C200.93 467.972 202.015 467.468 202.987 466.703C203.938 465.95 204.77 464.959 205.482 463.731C206.174 462.515 206.723 461.117 207.131 459.535C208.054 455.952 208.08 453.145 207.209 451.113C206.318 449.094 204.629 447.764 202.144 447.124C200.562 446.716 199.012 446.756 197.492 447.242C195.973 447.729 194.522 448.585 193.139 449.812L189.877 462.474ZM183.374 478.199L192.448 442.974L193.706 443.298C194.126 443.406 194.314 443.678 194.271 444.115L193.534 447.978C194.973 446.8 196.513 445.966 198.154 445.476C199.794 444.987 201.502 444.971 203.278 445.428C206.247 446.193 208.291 447.812 209.41 450.286C210.528 452.76 210.559 456.047 209.503 460.146C209.05 461.905 208.402 463.485 207.559 464.886C206.696 466.299 205.678 467.448 204.503 468.333C203.324 469.234 202.006 469.841 200.549 470.154C199.075 470.463 197.491 470.399 195.796 469.962C194.166 469.542 192.831 468.88 191.79 467.975C190.75 467.07 189.938 465.915 189.353 464.508L185.674 478.792L183.374 478.199Z" fill="white"/>
<path d="M159.047 457.335C157.42 456.605 156.094 455.672 155.069 454.536C154.022 453.409 153.287 452.138 152.862 450.723C152.437 449.308 152.321 447.777 152.513 446.127C152.683 444.486 153.167 442.776 153.965 440.997C154.764 439.218 155.719 437.72 156.832 436.502C157.929 435.277 159.148 434.353 160.487 433.73C161.826 433.107 163.265 432.812 164.803 432.845C166.326 432.87 167.901 433.248 169.528 433.978C171.155 434.708 172.492 435.637 173.539 436.765C174.57 437.885 175.306 439.156 175.746 440.577C176.171 441.992 176.298 443.52 176.128 445.161C175.943 446.795 175.451 448.501 174.653 450.28C173.855 452.059 172.907 453.561 171.809 454.786C170.69 456.019 169.46 456.947 168.121 457.57C166.767 458.186 165.328 458.482 163.805 458.456C162.26 458.438 160.674 458.065 159.047 457.335ZM168.76 435.689C167.407 435.082 166.126 434.781 164.918 434.787C163.687 434.801 162.543 435.091 161.485 435.658C160.412 436.218 159.435 437.031 158.555 438.097C157.668 439.179 156.883 440.48 156.2 442C155.525 443.506 155.078 444.949 154.86 446.331C154.642 447.713 154.68 448.991 154.976 450.164C155.249 451.347 155.789 452.402 156.597 453.331C157.389 454.252 158.461 455.017 159.815 455.624C161.168 456.231 162.46 456.528 163.69 456.514C164.905 456.493 166.053 456.195 167.133 455.62C168.191 455.053 169.171 454.232 170.074 453.158C170.961 452.076 171.742 450.783 172.418 449.277C173.1 447.757 173.55 446.305 173.768 444.924C173.964 443.55 173.922 442.28 173.642 441.113C173.347 439.939 172.803 438.892 172.011 437.97C171.197 437.057 170.113 436.296 168.76 435.689Z" fill="white"/>
<path d="M111.457 429.065L132.217 413.043L133.691 414.033C133.926 414.191 133.988 414.443 133.875 414.79L128.257 435.35C128.187 435.604 128.11 435.853 128.026 436.098C127.942 436.342 127.851 436.582 127.753 436.818C128.101 436.449 128.483 436.104 128.9 435.782L145.891 422.861C146.17 422.626 146.433 422.592 146.682 422.759L148.093 423.707L141.114 448.984L139.619 447.981C139.426 447.851 139.304 447.688 139.254 447.494C139.194 447.314 139.185 447.147 139.228 446.995L144.961 427.205C145.092 426.831 145.225 426.468 145.36 426.118C145.486 425.781 145.626 425.453 145.78 425.134C145.501 425.369 145.223 425.604 144.945 425.839C144.658 426.087 144.352 426.334 144.027 426.578L127.467 439.306C127.165 439.545 126.87 439.567 126.579 439.372L125.77 438.829C125.465 438.624 125.367 438.337 125.474 437.968L131.036 417.851C131.153 417.468 131.267 417.103 131.379 416.757C131.492 416.411 131.611 416.069 131.737 415.732C131.486 415.985 131.236 416.239 130.985 416.492C130.721 416.736 130.433 416.985 130.123 417.238L113.93 430.002C113.772 430.117 113.603 430.175 113.423 430.174C113.233 430.187 113.055 430.138 112.889 430.027L111.457 429.065Z" fill="white"/>
<path d="M104.073 416.83C102.252 417.074 100.5 416.993 98.8157 416.586C97.1198 416.167 95.6021 415.32 94.2626 414.044C93.2731 413.101 92.5537 412.116 92.1044 411.09C91.6431 410.052 91.4467 409.002 91.5152 407.939C91.5837 406.876 91.8879 405.808 92.4277 404.734C92.9675 403.66 93.7375 402.598 94.7377 401.548L105.705 390.036L107.443 391.691L96.4754 403.203C94.8659 404.893 93.9933 406.582 93.8574 408.271C93.71 409.972 94.4267 411.576 96.0076 413.082C97.1781 414.197 98.5636 414.941 100.164 415.315C101.741 415.69 103.434 415.725 105.242 415.422L118.14 401.882L119.878 403.538L102.72 421.548L101.761 420.634C101.459 420.347 101.428 420.029 101.667 419.682L104.073 416.83Z" fill="white"/>
<path d="M49.1766 346.057C49.445 346.07 49.6358 346.188 49.7491 346.411C49.8322 346.574 49.8488 346.828 49.7989 347.171C49.7341 347.522 49.6998 347.969 49.696 348.513C49.6697 349.05 49.726 349.676 49.8649 350.391C49.989 351.113 50.2775 351.92 50.7307 352.811C51.1385 353.613 51.6312 354.288 52.2087 354.836C52.7639 355.377 53.3554 355.786 53.9834 356.065C54.6038 356.33 55.2382 356.456 55.8866 356.444C56.5201 356.44 57.1192 356.294 57.6838 356.007C58.3821 355.652 58.8709 355.18 59.1502 354.589C59.4296 353.998 59.5892 353.338 59.6291 352.607C59.6614 351.861 59.6076 351.057 59.4677 350.193C59.3278 349.329 59.1842 348.458 59.0367 347.579C58.8818 346.686 58.764 345.792 58.6836 344.898C58.5883 344.012 58.6126 343.177 58.7564 342.393C58.8928 341.595 59.1823 340.859 59.6251 340.185C60.0679 339.511 60.735 338.948 61.6264 338.495C62.5921 338.004 63.5779 337.718 64.5836 337.637C65.5893 337.556 66.5666 337.694 67.5156 338.053C68.4571 338.397 69.3516 338.962 70.199 339.746C71.0465 340.531 71.7874 341.547 72.4218 342.795C73.2147 344.355 73.6531 345.824 73.7367 347.203C73.8055 348.589 73.6653 349.931 73.3162 351.23L72.3092 351.125C72.1526 351.111 72.0219 351.075 71.9172 351.016C71.8049 350.942 71.7072 350.824 71.6241 350.66C71.5259 350.467 71.5277 350.176 71.6295 349.788C71.7238 349.385 71.795 348.881 71.8431 348.277C71.8765 347.681 71.8421 346.988 71.7399 346.198C71.6303 345.394 71.3224 344.494 70.8164 343.499C70.3406 342.563 69.7952 341.802 69.1801 341.218C68.5502 340.64 67.8915 340.227 67.2042 339.978C66.5168 339.73 65.8155 339.637 65.1004 339.702C64.3628 339.759 63.6598 339.957 62.9912 340.297C62.2483 340.675 61.7224 341.166 61.4133 341.772C61.1043 342.378 60.9261 343.057 60.879 343.811C60.8318 344.564 60.8781 345.372 61.018 346.236C61.1503 347.085 61.294 347.956 61.449 348.849C61.604 349.743 61.7291 350.633 61.8244 351.519C61.9122 352.39 61.8879 353.225 61.7516 354.024C61.6152 354.822 61.3331 355.555 60.9052 356.221C60.4625 356.895 59.7805 357.466 58.8593 357.934C58.0719 358.334 57.2273 358.548 56.3256 358.577C55.4239 358.605 54.5396 358.447 53.6727 358.102C52.7982 357.743 51.9672 357.193 51.1796 356.453C50.3921 355.713 49.7114 354.778 49.1374 353.649C48.4502 352.297 48.0354 351.003 47.893 349.766C47.7431 348.515 47.8503 347.255 48.2146 345.985L49.1766 346.057Z" fill="white"/>
<path d="M35.5383 308.717C35.6425 308.772 35.7388 308.829 35.8272 308.889C35.8947 308.938 35.9482 309.026 35.9876 309.153C36.037 309.312 36.0001 309.559 35.8771 309.894C35.7381 310.234 35.6128 310.674 35.5012 311.215C35.3896 311.755 35.3389 312.408 35.349 313.173C35.3384 313.926 35.486 314.796 35.7919 315.783C36.2163 317.153 36.8406 318.294 37.6647 319.207C38.468 320.11 39.4368 320.787 40.5712 321.238C41.7056 321.689 42.9767 321.906 44.3846 321.888C45.7876 321.854 47.293 321.588 48.9009 321.09C50.5724 320.572 51.9937 319.922 53.1647 319.14C54.3309 318.343 55.2486 317.447 55.918 316.455C56.5716 315.467 56.9712 314.392 57.1171 313.23C57.2629 312.068 57.1434 310.866 56.7585 309.625C56.4032 308.478 55.9718 307.565 55.4643 306.885C54.9519 306.189 54.46 305.643 53.9886 305.248C53.5123 304.838 53.0944 304.531 52.735 304.328C52.3755 304.126 52.1662 303.929 52.107 303.738C52.0478 303.547 52.078 303.363 52.1977 303.186L52.7768 302.352C53.3679 302.57 53.9568 302.894 54.5434 303.323C55.13 303.752 55.6831 304.27 56.2027 304.876C56.7223 305.483 57.19 306.175 57.6058 306.954C58.0325 307.712 58.3841 308.536 58.6604 309.428C59.1292 310.94 59.2879 312.409 59.1365 313.834C58.9642 315.249 58.5013 316.57 57.7479 317.798C56.9735 319.015 55.9091 320.113 54.5547 321.091C53.1953 322.053 51.5525 322.833 49.6263 323.43C47.8115 323.993 46.0818 324.267 44.4374 324.253C42.7929 324.24 41.2863 323.939 39.9176 323.351C38.5489 322.763 37.3652 321.9 36.3666 320.761C35.3472 319.612 34.571 318.177 34.038 316.458C33.5594 314.914 33.3817 313.468 33.5051 312.121C33.6285 310.774 33.9739 309.524 34.5413 308.371L35.5383 308.717Z" fill="white"/>
<path d="M32.856 282.302C31.798 282.055 30.8491 281.743 30.0094 281.366C29.151 280.974 28.4078 280.501 27.7798 279.944C27.1497 279.372 26.643 278.716 26.2599 277.976C25.858 277.222 25.594 276.366 25.4678 275.407C25.4004 274.895 25.3836 274.385 25.4175 273.876C25.4348 273.369 25.5342 272.911 25.7155 272.5L27.3775 272.483C27.6527 272.531 27.8056 272.671 27.836 272.902C27.8621 273.1 27.8445 273.414 27.7833 273.842C27.7198 274.254 27.7316 274.79 27.8186 275.451C27.9448 276.409 28.2055 277.241 28.6009 277.945C28.9775 278.635 29.4941 279.24 30.1508 279.758C30.8053 280.261 31.5915 280.678 32.5095 281.011C33.4088 281.33 34.4359 281.598 35.5909 281.816L51.5532 279.714L51.8664 282.094L27.2042 285.341L27.0378 284.077C27.0008 283.796 27.0326 283.59 27.133 283.459C27.2334 283.328 27.4219 283.228 27.6985 283.158L32.856 282.302Z" fill="white"/>
<path d="M24.2481 242.689C24.3172 240.907 24.687 239.328 25.3575 237.953C26.012 236.561 26.9159 235.404 28.0692 234.481C29.2225 233.558 30.5999 232.878 32.2015 232.44C33.787 231.984 35.554 231.794 37.5025 231.87C39.4511 231.945 41.1981 232.272 42.7435 232.849C44.2896 233.409 45.6018 234.194 46.6802 235.203C47.7585 236.212 48.57 237.436 49.1146 238.875C49.6599 240.297 49.898 241.9 49.8288 243.682C49.7597 245.464 49.3979 247.051 48.7434 248.443C48.0895 249.819 47.1856 250.976 46.0317 251.915C44.8784 252.838 43.509 253.527 41.9234 253.983C40.3386 254.422 38.5719 254.603 36.6233 254.528C34.6748 254.452 32.9275 254.134 31.3814 253.574C29.8193 252.996 28.499 252.203 27.4207 251.193C26.343 250.167 25.5315 248.943 24.9862 247.521C24.425 246.082 24.1789 244.471 24.2481 242.689ZM47.9552 243.609C48.0127 242.127 47.813 240.826 47.356 239.708C46.8831 238.572 46.1861 237.619 45.2653 236.849C44.3451 236.063 43.2259 235.461 41.9078 235.043C40.573 234.624 39.073 234.382 37.4075 234.318C35.7588 234.254 34.2528 234.379 32.8896 234.693C31.5264 235.007 30.3556 235.52 29.3772 236.233C28.3829 236.928 27.6059 237.824 27.0463 238.92C26.4874 239.999 26.1792 241.279 26.1217 242.762C26.0641 244.244 26.2719 245.553 26.7448 246.689C27.2185 247.808 27.9237 248.761 28.8606 249.548C29.7814 250.318 30.9089 250.92 32.243 251.355C33.5778 251.774 35.0696 252.016 36.7183 252.079C38.3837 252.144 39.898 252.019 41.2612 251.705C42.6084 251.374 43.7709 250.86 44.7486 250.164C45.727 249.452 46.4956 248.556 47.0546 247.477C47.5975 246.38 47.8977 245.091 47.9552 243.609Z" fill="white"/>
<path d="M18.2119 200.83L53.7993 208.358L53.3026 210.706L17.7152 203.178L18.2119 200.83Z" fill="white"/>
<path d="M29.8852 162.297L63.6903 175.726L62.8042 177.957L28.9991 164.527L29.8852 162.297Z" fill="white"/>
<path d="M88.1422 100.662C86.4376 100.436 84.982 100.57 83.7754 101.066C82.5798 101.548 81.4943 102.349 80.5189 103.466C79.5546 104.571 78.9117 105.714 78.5902 106.893C78.2688 108.072 78.232 109.268 78.4797 110.48C78.7258 111.668 79.2377 112.856 80.0154 114.043C80.7914 115.207 81.7948 116.326 83.0254 117.4C85.8131 119.833 88.31 121.116 90.5162 121.249C92.7208 121.359 94.6669 120.447 96.3545 118.514C97.4284 117.283 98.089 115.88 98.3363 114.304C98.5835 112.728 98.4692 111.046 97.9934 109.259L88.1422 100.662ZM77.0084 87.7937L104.415 111.711L103.56 112.691C103.275 113.017 102.947 113.063 102.577 112.828L99.4554 110.436C99.8623 112.251 99.9163 114.001 99.6175 115.687C99.3186 117.373 98.5665 118.907 97.361 120.288C95.3446 122.598 92.9802 123.698 90.2676 123.587C87.555 123.476 84.604 122.029 81.4144 119.246C80.0457 118.051 78.9246 116.763 78.051 115.381C77.1759 113.976 76.6064 112.55 76.3427 111.103C76.0664 109.646 76.1155 108.195 76.4899 106.752C76.8753 105.297 77.6433 103.91 78.7939 102.591C79.9008 101.323 81.092 100.427 82.3675 99.9032C83.6431 99.3795 85.0406 99.1723 86.56 99.2816L75.4468 89.5832L77.0084 87.7937Z" fill="white"/>
<path d="M106.571 75.4178C107.953 74.2914 109.382 73.5252 110.857 73.1191C112.334 72.6896 113.8 72.6024 115.255 72.8577C116.71 73.1129 118.131 73.6964 119.519 74.6082C120.909 75.4965 122.22 76.6966 123.451 78.2085C124.683 79.7204 125.593 81.2468 126.182 82.7878C126.784 84.3182 127.063 85.8216 127.018 87.2979C126.974 88.7741 126.592 90.1923 125.873 91.5522C125.166 92.9016 124.122 94.1394 122.739 95.2657C121.357 96.3921 119.927 97.17 118.449 97.5995C116.985 98.0186 115.519 98.1057 114.051 97.861C112.596 97.6058 111.174 97.034 109.784 96.1456C108.407 95.2468 107.103 94.0414 105.871 92.5295C104.639 91.0177 103.723 89.4965 103.121 87.9661C102.521 86.4122 102.244 84.8971 102.288 83.4208C102.345 81.934 102.727 80.5159 103.434 79.1665C104.142 77.7936 105.188 76.5441 106.571 75.4178ZM121.555 93.812C122.705 92.8752 123.549 91.8656 124.086 90.7832C124.625 89.6773 124.879 88.5246 124.848 87.3249C124.829 86.1146 124.541 84.8769 123.983 83.6115C123.415 82.3333 122.604 81.0481 121.552 79.7559C120.51 78.4766 119.42 77.4294 118.283 76.6143C117.146 75.7992 115.987 75.2603 114.806 74.9974C113.626 74.7111 112.441 74.7203 111.249 75.025C110.07 75.3191 108.905 75.9346 107.755 76.8715C106.605 77.8083 105.76 78.8296 105.221 79.9355C104.694 81.0308 104.445 82.19 104.475 83.4132C104.506 84.6129 104.799 85.8571 105.355 87.1459C105.923 88.4242 106.728 89.7029 107.771 90.9822C108.823 92.2744 109.918 93.328 111.055 94.1431C112.194 94.9347 113.348 95.4673 114.517 95.7406C115.698 96.0035 116.878 95.9879 118.058 95.6937C119.239 95.3761 120.405 94.7489 121.555 93.812Z" fill="white"/>
<path d="M153.191 45.5759L158.191 71.318L156.646 72.1905C156.399 72.3298 156.146 72.2716 155.887 72.016L140.035 57.7679C139.84 57.5912 139.652 57.4103 139.471 57.2254C139.29 57.0404 139.116 56.8514 138.95 56.6583C139.123 57.1347 139.26 57.6315 139.36 58.1489L143.281 79.1316C143.366 79.4855 143.278 79.7363 143.017 79.8837L141.537 80.7194L122.081 63.1375L123.648 62.2527C123.851 62.138 124.051 62.1018 124.247 62.1442C124.435 62.1721 124.588 62.239 124.705 62.3451L139.817 76.3505C140.092 76.6352 140.357 76.9167 140.609 77.195C140.854 77.4588 141.084 77.7309 141.3 78.0111C141.215 77.6571 141.13 77.3032 141.045 76.9492C140.952 76.5808 140.869 76.1969 140.797 75.7975L136.854 55.286C136.776 54.9093 136.889 54.635 137.194 54.4629L138.043 53.9836C138.362 53.8034 138.662 53.8442 138.944 54.1062L154.425 68.1043C154.715 68.3808 154.99 68.6468 155.249 68.9024C155.508 69.1581 155.76 69.4178 156.004 69.6816C155.89 69.3441 155.776 69.0065 155.662 68.6689C155.563 68.3232 155.47 67.9547 155.383 67.5635L151.244 47.3642C151.212 47.1718 151.236 46.9952 151.318 46.8343C151.391 46.659 151.515 46.5222 151.689 46.4239L153.191 45.5759Z" fill="white"/>
<path d="M167.439 44.4697C168.038 42.7324 168.897 41.2027 170.016 39.8807C171.152 38.5531 172.59 37.5771 174.332 36.9528C175.618 36.4916 176.821 36.2906 177.94 36.3498C179.074 36.4034 180.101 36.6993 181.02 37.2374C181.939 37.7756 182.757 38.5269 183.474 39.4913C184.192 40.4557 184.795 41.6204 185.285 42.9854L190.65 57.9527L188.391 58.7626L183.026 43.7953C182.238 41.5988 181.12 40.0608 179.672 39.1814C178.218 38.2862 176.463 38.207 174.408 38.9438C172.886 39.4894 171.599 40.3934 170.547 41.6559C169.504 42.8971 168.713 44.3937 168.172 46.1455L174.483 63.7485L172.224 64.5585L163.829 41.1426L165.077 40.6955C165.469 40.5549 165.767 40.6694 165.97 41.0392L167.439 44.4697Z" fill="white"/>
</svg>
